<svg 
 xmlns="http://www.w3.org/2000/svg"
 xmlns:xlink="http://www.w3.org/1999/xlink"
 width="80px" height="80px">
<path fill-rule="evenodd"  fill="rgb(255, 255, 255)"
 d="M66.603,26.795 C59.203,26.795 53.205,20.797 53.205,13.397 C53.205,5.998 59.203,-0.000 66.603,-0.000 C73.998,0.008 79.991,6.001 80.000,13.397 C80.000,20.797 74.002,26.795 66.603,26.795 ZM64.889,13.397 C64.889,12.994 64.825,12.593 64.699,12.210 L68.893,9.788 C69.902,11.414 71.954,12.050 73.705,11.277 C75.456,10.505 76.371,8.560 75.849,6.719 C75.328,4.878 73.530,3.701 71.634,3.962 C69.738,4.221 68.323,5.838 68.317,7.752 L63.560,10.499 C62.025,9.169 59.719,9.266 58.302,10.720 C56.884,12.174 56.846,14.482 58.214,15.982 C59.583,17.483 61.884,17.657 63.462,16.379 L68.338,19.434 C68.540,21.326 70.097,22.783 71.997,22.859 C73.898,22.935 75.566,21.606 75.917,19.736 C76.268,17.867 75.195,16.023 73.397,15.405 C71.599,14.786 69.618,15.580 68.745,17.269 L64.658,14.708 C64.811,14.288 64.889,13.845 64.889,13.397 ZM72.151,5.983 C73.137,5.983 73.935,6.782 73.935,7.768 C73.935,8.753 73.137,9.552 72.152,9.552 C71.166,9.551 70.368,8.752 70.367,7.768 C70.367,6.783 71.166,5.983 72.151,5.983 ZM61.054,15.181 C60.068,15.181 59.270,14.383 59.270,13.397 C59.270,12.412 60.068,11.613 61.053,11.613 C62.039,11.614 62.837,12.412 62.838,13.397 C62.838,14.383 62.039,15.181 61.054,15.181 ZM72.151,17.243 C73.137,17.243 73.935,18.041 73.935,19.026 C73.935,20.012 73.137,20.811 72.152,20.811 C71.166,20.810 70.368,20.012 70.367,19.027 C70.367,18.041 71.166,17.243 72.151,17.243 ZM56.503,44.976 C56.291,45.502 55.694,45.756 55.168,45.545 C54.643,45.333 54.388,44.735 54.600,44.210 C56.757,38.857 55.508,32.734 51.428,28.653 C47.347,24.573 41.223,23.324 35.871,25.481 C35.345,25.692 34.747,25.438 34.536,24.912 C34.324,24.387 34.579,23.789 35.104,23.578 C41.219,21.114 48.216,22.540 52.878,27.203 C57.541,31.865 58.967,38.861 56.503,44.976 ZM13.397,26.795 C6.002,26.786 0.009,20.793 -0.000,13.397 C-0.000,5.998 5.998,-0.000 13.397,-0.000 C20.797,-0.000 26.795,5.998 26.795,13.397 C26.795,20.797 20.797,26.795 13.397,26.795 ZM22.393,9.004 C22.401,8.645 22.218,8.309 21.911,8.122 C21.590,7.937 21.196,7.931 20.869,8.105 L17.094,10.162 L17.094,9.998 C17.094,8.491 15.942,7.179 14.434,7.179 L7.094,7.179 C5.551,7.213 4.308,8.456 4.273,9.998 L4.273,16.796 C4.273,18.304 5.586,19.487 7.094,19.487 L14.434,19.487 C15.147,19.493 15.832,19.211 16.333,18.704 C16.834,18.197 17.109,17.509 17.094,16.796 L17.094,16.633 L20.879,18.690 C21.037,18.773 21.213,18.817 21.392,18.816 C21.572,18.816 21.748,18.767 21.902,18.673 C22.211,18.487 22.398,18.151 22.393,17.790 L22.393,9.004 ZM17.094,12.502 L20.342,10.737 L20.342,16.058 L17.094,14.293 L17.094,12.502 ZM14.434,17.436 L7.094,17.436 C6.717,17.436 6.325,17.173 6.325,16.796 L6.325,9.998 C6.358,9.589 6.684,9.263 7.094,9.231 L14.434,9.231 C14.811,9.231 15.043,9.621 15.043,9.998 L15.043,16.796 C15.058,16.964 15.000,17.131 14.883,17.254 C14.767,17.376 14.603,17.442 14.434,17.436 ZM12.574,57.309 L20.574,65.310 C19.709,66.044 18.877,66.810 18.078,67.610 C17.200,68.487 15.778,68.487 14.900,67.610 L10.274,62.982 C9.396,62.105 9.396,60.683 10.274,59.806 C11.073,59.004 11.840,58.172 12.574,57.309 ZM29.183,69.291 C30.221,70.324 30.802,71.729 30.799,73.193 C30.801,74.303 30.467,75.387 29.840,76.303 L21.105,67.568 C22.229,66.562 23.408,65.619 24.637,64.745 L29.183,69.291 ZM13.868,55.703 C16.520,52.257 18.628,48.427 20.121,44.343 L25.694,29.016 L48.866,52.190 L33.540,57.762 C29.456,59.254 25.625,61.363 22.180,64.015 L13.868,55.703 ZM41.791,36.091 C43.622,37.922 43.934,40.780 42.541,42.963 L34.920,35.342 C37.103,33.948 39.961,34.260 41.791,36.091 ZM47.605,32.476 C45.027,29.898 41.159,29.109 37.778,30.471 C37.252,30.683 36.655,30.429 36.443,29.903 C36.231,29.378 36.486,28.780 37.011,28.568 C41.156,26.898 45.897,27.866 49.056,31.025 C52.215,34.184 53.182,38.925 51.512,43.070 C51.301,43.595 50.704,43.849 50.178,43.638 C49.653,43.426 49.398,42.828 49.610,42.304 C50.972,38.922 50.183,35.053 47.605,32.476 ZM66.603,53.205 C73.998,53.214 79.991,59.206 80.000,66.603 C80.000,74.001 74.002,80.000 66.603,80.000 C59.203,80.000 53.205,74.001 53.205,66.603 C53.205,59.203 59.203,53.205 66.603,53.205 ZM62.906,71.799 C62.921,72.177 63.135,72.518 63.468,72.696 C63.628,72.780 63.805,72.825 63.986,72.825 C64.179,72.825 64.369,72.772 64.534,72.672 L72.941,67.475 C73.244,67.289 73.429,66.959 73.429,66.604 C73.430,66.249 73.247,65.918 72.945,65.730 L64.544,60.533 C64.214,60.338 63.806,60.329 63.468,60.510 C63.135,60.687 62.921,61.028 62.906,61.406 L62.906,71.799 ZM64.957,69.959 L64.957,63.246 L70.383,66.603 L64.957,69.959 Z"/>
</svg>