<svg xmlns="http://www.w3.org/2000/svg" xmlns:xlink="http://www.w3.org/1999/xlink" width="15" height="10" viewBox="0 0 15 10"><defs><path id="5g1ca" d="M757.487 647c3.314 0 6.17 1.99 7.483 4.861.04.089.04.19 0 .278-1.312 2.87-4.169 4.86-7.483 4.86s-6.17-1.99-7.483-4.86a.334.334 0 0 1 0-.278c1.312-2.871 4.169-4.861 7.483-4.861zm0 8.45c1.87 0 3.387-1.545 3.387-3.45 0-1.904-1.516-3.449-3.387-3.449-1.87 0-3.387 1.544-3.387 3.45 0 1.904 1.515 3.449 3.387 3.449zm0-1.243c-1.198 0-2.168-.989-2.168-2.208 0-1.22.97-2.208 2.168-2.208 1.197 0 2.168.989 2.168 2.208 0 1.22-.97 2.208-2.168 2.208z"/></defs><g><g transform="translate(-750 -647)"><use fill="#a4a4a4" xlink:href="#5g1ca"/></g></g></svg>