<svg xmlns="http://www.w3.org/2000/svg" xmlns:xlink="http://www.w3.org/1999/xlink" width="18" height="18" viewBox="0 0 18 18"><defs><path id="xcz9a" d="M1286.991 6684.205a.872.872 0 0 1-.267.762l-2.534 2.517a1.413 1.413 0 0 1-.448.324 1.85 1.85 0 0 1-.543.172c-.012 0-.05.004-.114.01a2.45 2.45 0 0 1-.248.01c-.241 0-.632-.042-1.171-.125-.54-.083-1.201-.286-1.982-.61-.781-.325-1.667-.811-2.658-1.458-.99-.649-2.045-1.539-3.163-2.67-.89-.877-1.626-1.716-2.21-2.517-.585-.8-1.055-1.541-1.41-2.222a11.946 11.946 0 0 1-.8-1.849 9.838 9.838 0 0 1-.363-1.43c-.063-.401-.089-.715-.076-.944.013-.229.02-.356.02-.382.025-.178.082-.359.17-.543.09-.185.197-.333.325-.448l2.534-2.536a.842.842 0 0 1 .61-.267c.165 0 .31.048.438.143.127.095.235.212.324.353l2.038 3.87a.93.93 0 0 1 .096.668c-.051.242-.159.445-.324.61l-.934.934a.323.323 0 0 0-.067.124.473.473 0 0 0-.028.143c.05.268.165.573.343.916.152.305.387.676.705 1.115.317.439.768.944 1.353 1.517.571.584 1.08 1.038 1.524 1.362a8.85 8.85 0 0 0 1.115.716c.298.152.527.245.686.276l.238.048c.025 0 .066-.01.124-.029a.313.313 0 0 0 .123-.067l1.086-1.106c.23-.203.496-.305.8-.305.217 0 .388.038.515.114h.02l3.677 2.174c.267.166.425.375.476.63z"/></defs><g><g transform="translate(-1269 -6670)"><use fill="#fff" xlink:href="#xcz9a"/></g></g></svg>