<svg xmlns="http://www.w3.org/2000/svg" xmlns:xlink="http://www.w3.org/1999/xlink" width="21" height="21" viewBox="0 0 21 21"><defs><path id="aqeaa" d="M1213.2 2284.632a10.2 10.2 0 0 1 .145 5.064 10.164 10.164 0 0 1-2.295 4.526l1.729 1.748-4.312-.068v-4.268l1.729 1.713a8.79 8.79 0 0 0 1.973-3.965 9.034 9.034 0 0 0-.155-4.436 8.865 8.865 0 0 0-2.25-3.866 8.836 8.836 0 0 0-6.297-2.622v-1.254c1.32 0 2.592.262 3.836.773a9.95 9.95 0 0 1 3.314 2.23 10.075 10.075 0 0 1 2.584 4.425zm-18.314 5.366c.416 1.47 1.183 2.748 2.273 3.855a8.801 8.801 0 0 0 6.308 2.643v1.233c-1.33 0-2.614-.263-3.859-.773a9.954 9.954 0 0 1-3.314-2.23 10.072 10.072 0 0 1-2.583-4.414 10.21 10.21 0 0 1-.144-5.075 10.143 10.143 0 0 1 2.295-4.526l-1.718-1.726 4.312.045v4.291l-1.729-1.736a8.864 8.864 0 0 0-1.985 3.977 9.045 9.045 0 0 0 .144 4.436z"/></defs><g><g transform="translate(-1193 -2277)"><use fill="#1e1e1e" xlink:href="#aqeaa"/></g></g></svg>