<svg xmlns="http://www.w3.org/2000/svg" preserveAspectRatio="xMidYMid slice" viewBox="0 0 1920 1080">
  <defs>
    <style>
      .cls-1 {
        fill: #fff;
        fill-rule: evenodd;
      }
    </style>
  </defs>
  <path id="Разработка_и_продвижение_сайтов" data-name="Разработка  и продвижение сайтов" class="cls-1" d="M960-.5h960V1080H960V-0.5ZM741.209,387.4V477h14.08V443.336h6.656q10.623,0,15.808-5.632t5.184-16.512V409.544q0-10.878-5.184-16.512T761.945,387.4H741.209Zm20.736,12.8a6.933,6.933,0,0,1,5.12,1.792q1.791,1.794,1.792,6.656v13.44q0,4.866-1.792,6.656a6.925,6.925,0,0,1-5.12,1.792h-6.656V400.2h6.656Zm58.5-12.8H799.832L785.5,477h12.928l2.432-16.256h17.28L820.568,477h14.208Zm-11.008,15.872,6.784,45.312H802.648ZM867.8,414.408q0,5.376-2.24,7.424a8.858,8.858,0,0,1-6.208,2.048h-2.944v12.8h2.176q4.863,0,7.04,2.56t2.176,8.832v7.04q0,6.018-1.984,8.064a7.055,7.055,0,0,1-5.312,2.048,7.17,7.17,0,0,1-5.312-1.984q-1.986-1.983-1.984-6.848v-12.16H839.9V455.5q0,10.881,5.312,16.7t15.68,5.824q10.368,0,15.68-5.824t5.312-16.7v-7.04a27.593,27.593,0,0,0-2.24-11.712,14.169,14.169,0,0,0-7.616-7.1q9.855-4.095,9.856-18.432v-2.3q0-10.878-5.312-16.7t-15.68-5.824q-10.368,0-15.68,5.824T839.9,408.9v8.7h13.312v-9.6q0-4.863,1.984-6.848a7.178,7.178,0,0,1,5.312-1.984,6.944,6.944,0,0,1,5.312,2.112q1.983,2.112,1.984,8.128v4.992ZM890.838,387.4V477h14.08V443.336h6.656q10.623,0,15.808-5.632t5.184-16.512V409.544q0-10.878-5.184-16.512T911.574,387.4H890.838Zm20.736,12.8a6.933,6.933,0,0,1,5.12,1.792q1.791,1.794,1.792,6.656v13.44q0,4.866-1.792,6.656a6.925,6.925,0,0,1-5.12,1.792h-6.656V400.2h6.656Zm58.5-12.8H949.461L935.125,477h12.928l2.432-16.256h17.28L970.2,477h14.208Zm-11.008,15.872,6.784,45.312H952.277Zm45.819-3.072h23.17V387.4H990.805V477h20.735q10.62,0,15.81-5.632t5.18-16.512V443.208q0-10.878-5.18-16.512t-15.81-5.632h-6.66V400.2Zm0,64V433.864h6.66a6.937,6.937,0,0,1,5.12,1.792q1.785,1.794,1.79,6.656v13.44q0,4.866-1.79,6.656a6.928,6.928,0,0,1-5.12,1.792h-6.66Zm48.77-56.192q0-4.863,1.99-6.848a8.1,8.1,0,0,1,10.62,0q1.98,1.986,1.98,6.848v48.384q0,4.866-1.98,6.848a8.1,8.1,0,0,1-10.62,0q-2-1.983-1.99-6.848V408.008ZM1039.57,455.5q0,10.881,5.51,16.7,5.49,5.826,15.87,5.824,10.365,0,15.87-5.824t5.5-16.7V408.9q0-10.878-5.5-16.7t-15.87-5.824q-10.365,0-15.87,5.824t-5.51,16.7V455.5Zm47.87-55.3h14.72V477h14.08V400.2h14.72V387.4h-43.52v12.8Zm82.05,76.8h14.46l-19.58-49.664,19.58-39.936h-13.82l-18.69,39.04V387.4h-14.08V477h14.08V449.48l4.35-8.192Zm51.97-89.6h-20.61L1186.51,477h12.93l2.43-16.256h17.28L1221.58,477h14.21Zm-11.01,15.872,6.78,45.312h-13.57ZM529.055,565.7v64.9h12.672V541H524.063L509.6,594.632V541H497.055v89.6h14.464Zm56.83-11.9h16v76.8h14.336V541H571.8v89.6h14.08V553.8ZM626.459,541v89.6h14.08V596.936H647.2q10.623,0,15.808-5.632t5.184-16.512V563.144q0-10.878-5.184-16.512T647.2,541H626.459ZM647.2,553.8a6.933,6.933,0,0,1,5.12,1.792q1.791,1.794,1.792,6.656v13.44q0,4.866-1.792,6.656a6.925,6.925,0,0,1-5.12,1.792h-6.656V553.8H647.2Zm40.191,7.808q0-4.863,1.984-6.848a8.1,8.1,0,0,1,10.624,0q1.983,1.986,1.984,6.848v48.384q0,4.866-1.984,6.848a8.1,8.1,0,0,1-10.624,0q-1.986-1.983-1.984-6.848V561.608ZM673.306,609.1q0,10.881,5.5,16.7t15.872,5.824q10.368,0,15.872-5.824t5.5-16.7V562.5q0-10.878-5.5-16.7t-15.872-5.824q-10.368,0-15.872,5.824t-5.5,16.7V609.1ZM719.9,640.84h14.336V630.6H770.2v10.24h14.336V617.8h-7.168V541H732.825v68.352q0,5.25-2.368,6.912a9.653,9.653,0,0,1-5.7,1.664h-2.432a21.872,21.872,0,0,1-2.432-.128v23.04Zm27.008-87.04h16.384v64H745.753a33.393,33.393,0,0,0,1.152-9.472V553.8ZM790.3,541v89.6h22.144q10.623,0,16-5.44t5.376-15.808v-7.3a27.8,27.8,0,0,0-2.368-12.1,14.073,14.073,0,0,0-8.128-7.1,13.831,13.831,0,0,0,6.912-6.656,26.079,26.079,0,0,0,2.176-11.392v-3.2q0-10.368-4.928-15.488T811.545,541H790.3Zm20.352,49.28q4.863,0,6.976,2.3t2.112,8.576v7.808q0,4.992-1.856,6.912a7.229,7.229,0,0,1-5.44,1.92h-8.064V590.28h6.272Zm0.512-36.48q3.711,0,5.44,2.176t1.728,7.04v4.992q0,5.376-2.24,7.424a8.858,8.858,0,0,1-6.208,2.048h-5.5V553.8h6.784Zm62.976,11.9v64.9h12.672V541H869.145l-14.464,53.632V541H842.137v89.6H856.6Zm47.23,29.184,4.224,7.936V630.6H939.8V602.824l4.224-7.936,13.7,35.712h14.464L952.6,580.936,972.183,541H958.359L939.8,579.784V541H925.591v38.784L907.031,541H893.207l19.584,39.936L893.207,630.6h14.464Zm71.3-41.088h24.318V541h-38.4v89.6h38.4V617.8H992.662V591.56h19.328v-12.8H992.662V553.8Zm46.718,38.4h16v38.4h14.34V541h-14.34v38.4h-16V541H1025.3v89.6h14.08V592.2Zm72.57-26.5v64.9h12.68V541h-17.67l-14.46,53.632V541h-12.55v89.6h14.47Zm37-11.9h24.32V541h-38.4v89.6h38.4V617.8h-24.32V591.56h19.32v-12.8h-19.32V553.8Zm79.87,43.392v12.8c0,3.244-.67,5.5-1.99,6.784a8.3,8.3,0,0,1-10.62,0q-1.995-1.92-1.99-6.784V561.608q0-4.863,1.99-6.848a8.1,8.1,0,0,1,10.62,0c1.32,1.324,1.99,3.606,1.99,6.848v9.6h13.31v-8.7q0-10.878-5.31-16.7t-15.68-5.824q-10.38,0-15.68,5.824-5.325,5.826-5.32,16.7V609.1q0,10.881,5.32,16.7t15.68,5.824q10.365,0,15.68-5.824t5.31-16.7v-11.9h-13.31ZM1282.19,541h-20.61l-14.33,89.6h12.92l2.44-16.256h17.28l2.43,16.256h14.21Zm-11.01,15.872,6.79,45.312H1264.4Zm63.75,8.832v64.9h12.67V541h-17.67l-14.46,53.632V541h-12.54v89.6h14.46Zm-24.96-40.192v10.5h30.97v-10.5h-30.97ZM1354,553.8h14.72v76.8h14.08V553.8h14.72V541H1354v12.8Zm62.71,7.808q0-4.863,1.99-6.848a8.1,8.1,0,0,1,10.62,0c1.32,1.324,1.99,3.606,1.99,6.848v48.384c0,3.244-.67,5.526-1.99,6.848a8.1,8.1,0,0,1-10.62,0q-2-1.983-1.99-6.848V561.608ZM1402.63,609.1q0,10.881,5.51,16.7t15.87,5.824q10.365,0,15.87-5.824t5.51-16.7V562.5q0-10.878-5.51-16.7t-15.87-5.824q-10.365,0-15.87,5.824t-5.51,16.7V609.1Zm51.72-68.1v89.6h22.14q10.62,0,16-5.44t5.38-15.808v-7.3a27.773,27.773,0,0,0-2.37-12.1,14.077,14.077,0,0,0-8.13-7.1,13.8,13.8,0,0,0,6.91-6.656,26.076,26.076,0,0,0,2.18-11.392v-3.2q0-10.368-4.93-15.488T1475.59,541h-21.24Zm20.35,49.28c3.24,0,5.57.768,6.97,2.3s2.12,4.4,2.12,8.576v7.808q0,4.992-1.86,6.912a7.229,7.229,0,0,1-5.44,1.92h-8.06V590.28h6.27Zm0.51-36.48c2.47,0,4.29.726,5.44,2.176s1.73,3.8,1.73,7.04v4.992q0,5.376-2.24,7.424a8.88,8.88,0,0,1-6.21,2.048h-5.5V553.8h6.78Z"/>
</svg>
