<svg xmlns="http://www.w3.org/2000/svg" xmlns:xlink="http://www.w3.org/1999/xlink">
  <symbol id="in" viewBox="0 0 17 17">
    <path transform="translate(-1497 -782)" d="M1514 787.312v6.375a5.313 5.313 0 0 1-5.313 5.313h-6.375a5.313 5.313 0 0 1-5.312-5.313v-6.375a5.313 5.313 0 0 1 5.312-5.312h6.375a5.313 5.313 0 0 1 5.313 5.312zm-1.594 0a3.723 3.723 0 0 0-3.719-3.719h-6.375a3.723 3.723 0 0 0-3.719 3.72v6.374a3.723 3.723 0 0 0 3.72 3.719h6.374a3.723 3.723 0 0 0 3.719-3.719zm-2.656 3.188a4.25 4.25 0 1 1-8.5 0 4.25 4.25 0 0 1 8.5 0zm-1.594 0a2.66 2.66 0 0 0-2.656-2.657 2.66 2.66 0 0 0-2.657 2.657 2.66 2.66 0 0 0 2.657 2.656 2.66 2.66 0 0 0 2.656-2.656zm1.913-5.135a.566.566 0 1 1 0 1.132.566.566 0 0 1 0-1.132z"/>
  </symbol>
  <symbol id="vk" viewBox="0 0 16 9">
    <path transform="translate(-1461 -786)" d="M1468.828 794.87h.956s.29-.032.436-.187c.136-.142.131-.41.131-.41s-.019-1.251.577-1.436c.588-.182 1.341 1.21 2.14 1.746.605.405 1.064.316 1.064.316l2.137-.03s1.118-.067.588-.924c-.043-.07-.31-.635-1.59-1.794-1.34-1.214-1.16-1.016.455-3.116.983-1.278 1.376-2.058 1.253-2.392-.117-.318-.84-.234-.84-.234l-2.404.013s-.178-.023-.312.054c-.128.076-.211.252-.211.252s-.381.99-.89 1.83c-1.07 1.775-1.5 1.869-1.674 1.759-.408-.257-.306-1.033-.306-1.583 0-1.72.268-2.438-.52-2.623-.263-.062-.455-.102-1.124-.11-.858-.008-1.585.004-1.996.2-.274.13-.485.422-.356.439.16.02.52.095.71.348.247.327.238 1.063.238 1.063s.142 2.025-.33 2.276c-.326.173-.77-.18-1.726-1.79-.489-.825-.859-1.737-.859-1.737s-.07-.17-.198-.26c-.154-.111-.37-.146-.37-.146l-2.286.014s-.343.01-.469.155c-.112.13-.009.397-.009.397s1.79 4.086 3.816 6.145c1.86 1.888 3.97 1.765 3.97 1.765z"/>
  </symbol>
  <symbol id="fb" viewBox="0 0 7 15">
    <path transform="translate(-1538 -783)" d="M1538.223 790.989h1.519v6.769c0 .133.1.242.223.242h2.576c.123 0 .223-.109.223-.242v-6.737h1.746c.114 0 .21-.093.222-.215l.265-2.492a.256.256 0 0 0-.055-.189.217.217 0 0 0-.167-.08h-2.01v-1.563c0-.47.233-.71.695-.71h1.315c.124 0 .224-.107.224-.241v-2.288c0-.133-.1-.242-.224-.242h-1.812a1.54 1.54 0 0 0-.083-.001c-.314 0-1.407.066-2.27.926a2.714 2.714 0 0 0-.793 2.292v1.827h-1.594c-.124 0-.224.108-.224.241v2.46c0 .134.1.243.224.243z"/>
  </symbol>
  <symbol viewBox="0 0 20 13" id="letter">
    <defs>
      <path id="a" d="M1278.026 6782.793a.754.754 0 0 1-.471-.152l-9.515-7.622a.109.109 0 0 1 .066-.024h19.787c.035 0 .068.017.086.043l-9.094 7.294-.38.307a.122.122 0 0 0-.022.014l-.033.02a.785.785 0 0 1-.42.12zm-3.21-1.304l-6.816 5.353v-10.814zm13.184-5.426v10.782l-6.808-5.32zm-7.46 5.987l7.46 5.827v.018a.106.106 0 0 1-.105.103h-19.787a.107.107 0 0 1-.108-.103v-.02l7.467-5.863 1.562 1.252c.27.216.625.334.999.334.373 0 .728-.12 1-.336z"></path>
    </defs>
    <use fill="#fff" xlink:href="#a" transform="translate(-1268 -6775)"></use>
  </symbol>
  <symbol viewBox="0 0 18 18" id="tel">
    <defs>
      <path id="a" d="M1286.991 6684.205a.872.872 0 0 1-.267.762l-2.534 2.517a1.413 1.413 0 0 1-.448.324 1.85 1.85 0 0 1-.543.172c-.012 0-.05.004-.114.01a2.45 2.45 0 0 1-.248.01c-.241 0-.632-.042-1.171-.125-.54-.083-1.201-.286-1.982-.61-.781-.325-1.667-.811-2.658-1.458-.99-.649-2.045-1.539-3.163-2.67-.89-.877-1.626-1.716-2.21-2.517a17.65 17.65 0 0 1-1.41-2.222 11.946 11.946 0 0 1-.8-1.849 9.838 9.838 0 0 1-.363-1.43c-.063-.401-.089-.715-.076-.944.013-.229.02-.356.02-.382a1.86 1.86 0 0 1 .17-.543c.09-.185.197-.333.325-.448l2.534-2.536a.842.842 0 0 1 .61-.267c.165 0 .31.048.438.143.127.095.235.212.324.353l2.038 3.87a.93.93 0 0 1 .096.668 1.188 1.188 0 0 1-.324.61l-.934.934a.323.323 0 0 0-.067.124.473.473 0 0 0-.028.143c.05.268.165.573.343.916.152.305.387.676.705 1.115.317.439.768.944 1.353 1.517.571.584 1.08 1.038 1.524 1.362a8.85 8.85 0 0 0 1.115.716c.298.152.527.245.686.276l.238.048c.025 0 .066-.01.124-.029a.313.313 0 0 0 .123-.067l1.086-1.106c.23-.203.496-.305.8-.305.217 0 .388.038.515.114h.02l3.677 2.174c.267.166.425.375.476.63z"></path>
    </defs>
    <use fill="#fff" xlink:href="#a" transform="translate(-1269 -6670)"></use>
  </symbol>
  <symbol viewBox="0 0 19 24" id="user">
    <defs>
      <path id="a" d="M1284.008 6575.882c4.04 1.551 2.816 7.742 2.818 7.79-.127.691-.201.928-.265.955-4.042 1.828-14.085 1.828-18.126 0-.065-.027-.139-.264-.265-.955 0-.048-1.208-6.263 2.817-7.79 2.727-.904 3.86-2.029 3.86-2.029l.091.089c.81.774 1.705 1.229 2.521 1.229h.077c.816 0 1.711-.455 2.52-1.23l.092-.088s1.134 1.125 3.86 2.03zm-2.284-7.926c.158.138.116.728-.052 1.304-.151.576-.35.731-.397.867-.48 2.289-2.062 4.245-3.765 4.245-1.702 0-3.373-1.956-3.853-4.245-.047-.136-.245-.291-.397-.867-.168-.576-.205-1.128-.052-1.304l.034-.037c.226-.212.208-.2.208-.2s-.395-2.023-.078-2.98c.525-1.613 2.374-2.465 2.728-2.602.543-.242 1.012-.146 1.012-.146.023.001.385.074.385.075.596.12 3.566 1.143 4.063 2.673.317.957-.078 2.98-.078 2.98s-.018-.012.209.2z"></path>
    </defs>
    <use fill="#fff" xlink:href="#a" transform="translate(-1268 -6562)"></use>
  </symbol>
  <symbol viewBox="0 0 15 10" id="eye">
    <path transform="translate(-750 -647)" d="M757.487 647c3.314 0 6.17 1.99 7.483 4.861.04.089.04.19 0 .278-1.312 2.87-4.169 4.86-7.483 4.86s-6.17-1.99-7.483-4.86a.334.334 0 0 1 0-.278c1.312-2.871 4.169-4.861 7.483-4.861zm0 8.45c1.87 0 3.387-1.545 3.387-3.45 0-1.904-1.516-3.449-3.387-3.449-1.87 0-3.387 1.544-3.387 3.45 0 1.904 1.515 3.449 3.387 3.449zm0-1.243c-1.198 0-2.168-.989-2.168-2.208 0-1.22.97-2.208 2.168-2.208 1.197 0 2.168.989 2.168 2.208 0 1.22-.97 2.208-2.168 2.208z"/>
  </symbol>
  <symbol id="date" viewBox="0 0 14 15">
    <path transform="translate(-827 -643)" d="M840.679 645.46c.213.212.32.464.32.755v10.713c0 .29-.107.541-.32.753a1.036 1.036 0 0 1-.758.319h-11.843c-.292 0-.544-.106-.757-.319a1.026 1.026 0 0 1-.32-.753v-10.713c0-.291.107-.543.32-.754.213-.212.465-.318.757-.318h1.077v-.804c0-.368.131-.683.395-.946a1.3 1.3 0 0 1 .95-.393h.539c.37 0 .687.131.95.393.264.263.396.578.396.946v.804h3.23v-.804c0-.368.132-.683.395-.946a1.3 1.3 0 0 1 .95-.393h.54c.37 0 .686.131.95.393.264.263.395.578.395.946v.804h1.077c.291 0 .544.106.757.318zm-3.987 1.29a.26.26 0 0 0 .075.192c.05.05.115.075.194.075h.538a.264.264 0 0 0 .194-.075.261.261 0 0 0 .075-.192v-2.41a.26.26 0 0 0-.075-.193.264.264 0 0 0-.194-.076h-.538a.263.263 0 0 0-.194.076.26.26 0 0 0-.075.192zm-6.46 0a.26.26 0 0 0 .075.192c.05.05.115.075.193.075h.539a.263.263 0 0 0 .193-.075.26.26 0 0 0 .076-.192v-2.41a.26.26 0 0 0-.076-.193.263.263 0 0 0-.193-.076h-.539a.263.263 0 0 0-.193.076.26.26 0 0 0-.075.192zm9.69 1.607h-11.844v8.57h11.843z"/>
  </symbol>
  <symbol id="load" viewBox="0 0 21 21">
    <path transform="translate(-1193 -2277)" d="M1213.2 2284.632a10.2 10.2 0 0 1 .145 5.064 10.164 10.164 0 0 1-2.295 4.526l1.729 1.748-4.312-.068v-4.268l1.729 1.713a8.79 8.79 0 0 0 1.973-3.965 9.034 9.034 0 0 0-.155-4.436 8.865 8.865 0 0 0-2.25-3.866 8.836 8.836 0 0 0-6.297-2.622v-1.254a9.99 9.99 0 0 1 3.836.773 9.95 9.95 0 0 1 3.314 2.23 10.075 10.075 0 0 1 2.584 4.425zm-18.314 5.366c.416 1.47 1.183 2.748 2.273 3.855a8.801 8.801 0 0 0 6.308 2.643v1.233c-1.33 0-2.614-.263-3.859-.773a9.954 9.954 0 0 1-3.314-2.23 10.072 10.072 0 0 1-2.583-4.414 10.21 10.21 0 0 1-.144-5.075 10.143 10.143 0 0 1 2.295-4.526l-1.718-1.726 4.312.045v4.291l-1.729-1.736a8.864 8.864 0 0 0-1.985 3.977 9.045 9.045 0 0 0 .144 4.436z"/>
  </symbol>
  <symbol id="link" viewBox="0 0 14 13">
    <path transform="translate(-684 -142)" d="M684.833 154.922v-11.35h8.92l-.812.807h-7.296v9.731h9.726v-7.296l.812-.811v8.92zm12.973-8.92l-1.461-1.46-5.51 5.515-1.136-1.136 5.51-5.512-1.457-1.46h4.054z"/>
  </symbol>
  <symbol id="phone" viewBox="0 0 15 15">
    <path transform="translate(-1840 -28)" d="M1854.993 39.837a.727.727 0 0 1-.223.636l-2.112 2.097a1.22 1.22 0 0 1-.373.27 1.56 1.56 0 0 1-.452.142l-.096.008a1.895 1.895 0 0 1-.206.009c-.2 0-.527-.035-.976-.103-.45-.07-1-.24-1.652-.509-.65-.27-1.39-.676-2.215-1.216-.825-.54-1.704-1.281-2.636-2.225a17.403 17.403 0 0 1-1.842-2.097 14.918 14.918 0 0 1-1.174-1.85 9.951 9.951 0 0 1-.667-1.542 8.178 8.178 0 0 1-.302-1.192 3.93 3.93 0 0 1-.064-.787c.01-.19.016-.296.016-.317.021-.149.069-.3.143-.453.074-.154.164-.278.27-.373l2.112-2.114a.7.7 0 0 1 .508-.223c.138 0 .26.04.365.12.106.08.196.177.27.294l1.7 3.225a.79.79 0 0 1 .079.557.987.987 0 0 1-.27.508l-.778.778a.268.268 0 0 0-.056.104.394.394 0 0 0-.024.12c.043.222.138.476.286.762.127.255.323.564.588.93.264.365.64.786 1.127 1.262.476.488.9.866 1.27 1.137.37.27.68.468.93.596.248.126.438.203.57.23l.199.04a.383.383 0 0 0 .103-.024.248.248 0 0 0 .104-.056l.905-.921a.976.976 0 0 1 .666-.255c.18 0 .323.032.43.095h.015l3.065 1.812c.222.138.354.313.397.525z"/>
  </symbol>
  <symbol id="close" viewBox="0 0 21.9 21.9">
    <path d="M14.1 11.3c-.2-.2-.2-.5 0-.7l7.5-7.5c.2-.2.3-.5.3-.7s-.1-.5-.3-.7L20.2.3c-.2-.2-.5-.3-.7-.3-.3 0-.5.1-.7.3l-7.5 7.5c-.2.2-.5.2-.7 0L3.1.3C2.9.1 2.6 0 2.4 0s-.5.1-.7.3L.3 1.7c-.2.2-.3.5-.3.7s.1.5.3.7l7.5 7.5c.2.2.2.5 0 .7L.3 18.8c-.2.2-.3.5-.3.7s.1.5.3.7l1.4 1.4c.2.2.5.3.7.3s.5-.1.7-.3l7.5-7.5c.2-.2.5-.2.7 0l7.5 7.5c.2.2.5.3.7.3s.5-.1.7-.3l1.4-1.4c.2-.2.3-.5.3-.7s-.1-.5-.3-.7l-7.5-7.5z"/>
  </symbol>

</svg>
