<svg xmlns="http://www.w3.org/2000/svg" xmlns:xlink="http://www.w3.org/1999/xlink" width="15" height="15" viewBox="0 0 15 15"><defs><path id="zwksa" d="M1854.993 39.837a.727.727 0 0 1-.223.636l-2.112 2.097c-.095.105-.22.195-.373.27a1.56 1.56 0 0 1-.452.142l-.096.008a1.895 1.895 0 0 1-.206.009c-.2 0-.527-.035-.976-.103-.45-.07-1-.24-1.652-.509-.65-.27-1.39-.676-2.215-1.216-.825-.54-1.704-1.281-2.636-2.225a17.403 17.403 0 0 1-1.842-2.097 14.918 14.918 0 0 1-1.174-1.85 9.951 9.951 0 0 1-.667-1.542 8.178 8.178 0 0 1-.302-1.192 3.93 3.93 0 0 1-.064-.787c.01-.19.016-.296.016-.317.021-.149.069-.3.143-.453.074-.154.164-.278.27-.373l2.112-2.114a.7.7 0 0 1 .508-.223c.138 0 .26.04.365.12.106.08.196.177.27.294l1.7 3.225c.094.17.12.355.079.557a.987.987 0 0 1-.27.508l-.778.778a.268.268 0 0 0-.056.104.394.394 0 0 0-.024.12c.043.222.138.476.286.762.127.255.323.564.588.93.264.365.64.786 1.127 1.262.476.488.9.866 1.27 1.137.37.27.68.468.93.596.248.126.438.203.57.23l.199.04a.383.383 0 0 0 .103-.024.248.248 0 0 0 .104-.056l.905-.921a.976.976 0 0 1 .666-.255c.18 0 .323.032.43.095h.015l3.065 1.812c.222.138.354.313.397.525z"/></defs><g><g transform="translate(-1840 -28)"><use fill="#515151" xlink:href="#zwksa"/></g></g></svg>