<svg xmlns="http://www.w3.org/2000/svg" xmlns:xlink="http://www.w3.org/1999/xlink" width="14" height="15" viewBox="0 0 14 15"><defs><path id="hoada" d="M840.679 645.46c.213.212.32.464.32.755v10.713c0 .29-.107.541-.32.753a1.036 1.036 0 0 1-.758.319h-11.843c-.292 0-.544-.106-.757-.319a1.026 1.026 0 0 1-.32-.753v-10.713c0-.291.107-.543.32-.754.213-.212.465-.318.757-.318h1.077v-.804c0-.368.131-.683.395-.946a1.3 1.3 0 0 1 .95-.393h.539c.37 0 .687.131.95.393.264.263.396.578.396.946v.804h3.23v-.804c0-.368.132-.683.395-.946a1.3 1.3 0 0 1 .95-.393h.54c.37 0 .686.131.95.393.264.263.395.578.395.946v.804h1.077c.291 0 .544.106.757.318zm-3.987 1.29a.26.26 0 0 0 .075.192c.05.05.115.075.194.075h.538a.264.264 0 0 0 .194-.075.261.261 0 0 0 .075-.192v-2.41a.26.26 0 0 0-.075-.193.264.264 0 0 0-.194-.076h-.538a.263.263 0 0 0-.194.076.26.26 0 0 0-.075.192zm-6.46 0c0 .078.025.142.075.192.05.05.115.075.193.075h.539a.263.263 0 0 0 .193-.075.26.26 0 0 0 .076-.192v-2.41a.26.26 0 0 0-.076-.193.263.263 0 0 0-.193-.076h-.539a.263.263 0 0 0-.193.076.26.26 0 0 0-.075.192zm9.69 1.607h-11.844v8.57h11.843z"/></defs><g><g transform="translate(-827 -643)"><use fill="#a4a4a4" xlink:href="#hoada"/></g></g></svg>