<svg xmlns="http://www.w3.org/2000/svg" xmlns:xlink="http://www.w3.org/1999/xlink" width="19" height="24" viewBox="0 0 19 24"><defs><path id="bp4oa" d="M1284.008 6575.882c4.04 1.551 2.816 7.742 2.818 7.79-.127.691-.201.928-.265.955-4.042 1.828-14.085 1.828-18.126 0-.065-.027-.139-.264-.265-.955 0-.048-1.208-6.263 2.817-7.79 2.727-.904 3.86-2.029 3.86-2.029l.091.089c.81.774 1.705 1.229 2.521 1.229h.077c.816 0 1.711-.455 2.52-1.23l.092-.088s1.134 1.125 3.86 2.03zm-2.284-7.926c.158.138.116.728-.052 1.304-.151.576-.35.731-.397.867-.48 2.289-2.062 4.245-3.765 4.245-1.702 0-3.373-1.956-3.853-4.245-.047-.136-.245-.291-.397-.867-.168-.576-.205-1.128-.052-1.304l.034-.037c.226-.212.208-.2.208-.2s-.395-2.023-.078-2.98c.525-1.613 2.374-2.465 2.728-2.602.543-.242 1.012-.146 1.012-.146.023.001.385.074.385.075.596.12 3.566 1.143 4.063 2.673.317.957-.078 2.98-.078 2.98s-.018-.012.209.2z"/></defs><g><g transform="translate(-1268 -6562)"><use fill="#fff" xlink:href="#bp4oa"/></g></g></svg>