<svg xmlns="http://www.w3.org/2000/svg" xmlns:xlink="http://www.w3.org/1999/xlink" width="20" height="13" viewBox="0 0 20 13"><defs><path id="c2wua" d="M1278.026 6782.793a.754.754 0 0 1-.471-.152l-9.515-7.622a.109.109 0 0 1 .066-.024h19.787c.035 0 .068.017.086.043l-9.094 7.294-.38.307a.122.122 0 0 0-.022.014l-.033.02a.785.785 0 0 1-.42.12zm-3.21-1.304l-6.816 5.353v-10.814zm13.184-5.426v10.782l-6.808-5.32zm-7.46 5.987l7.46 5.827v.018a.106.106 0 0 1-.105.103h-19.787a.107.107 0 0 1-.108-.103v-.02l7.467-5.863 1.562 1.252c.27.216.625.334.999.334.373 0 .728-.12 1-.336z"/></defs><g><g transform="translate(-1268 -6775)"><use fill="#fff" xlink:href="#c2wua"/></g></g></svg>