<svg xmlns="http://www.w3.org/2000/svg" xmlns:xlink="http://www.w3.org/1999/xlink">
  <symbol id="in" viewBox="0 0 17 17">
    <path transform="translate(-1497 -782)" d="M1514 787.312v6.375a5.313 5.313 0 0 1-5.313 5.313h-6.375a5.313 5.313 0 0 1-5.312-5.313v-6.375a5.313 5.313 0 0 1 5.312-5.312h6.375a5.313 5.313 0 0 1 5.313 5.312zm-1.594 0a3.723 3.723 0 0 0-3.719-3.719h-6.375a3.723 3.723 0 0 0-3.719 3.72v6.374a3.723 3.723 0 0 0 3.72 3.719h6.374a3.723 3.723 0 0 0 3.719-3.719zm-2.656 3.188a4.25 4.25 0 1 1-8.5 0 4.25 4.25 0 0 1 8.5 0zm-1.594 0a2.66 2.66 0 0 0-2.656-2.657 2.66 2.66 0 0 0-2.657 2.657 2.66 2.66 0 0 0 2.657 2.656 2.66 2.66 0 0 0 2.656-2.656zm1.913-5.135a.566.566 0 1 1 0 1.132.566.566 0 0 1 0-1.132z"/>
  </symbol>
  <symbol id="vk" viewBox="0 0 16 9">
    <path transform="translate(-1461 -786)" d="M1468.828 794.87h.956s.29-.032.436-.187c.136-.142.131-.41.131-.41s-.019-1.251.577-1.436c.588-.182 1.341 1.21 2.14 1.746.605.405 1.064.316 1.064.316l2.137-.03s1.118-.067.588-.924c-.043-.07-.31-.635-1.59-1.794-1.34-1.214-1.16-1.016.455-3.116.983-1.278 1.376-2.058 1.253-2.392-.117-.318-.84-.234-.84-.234l-2.404.013s-.178-.023-.312.054c-.128.076-.211.252-.211.252s-.381.99-.89 1.83c-1.07 1.775-1.5 1.869-1.674 1.759-.408-.257-.306-1.033-.306-1.583 0-1.72.268-2.438-.52-2.623-.263-.062-.455-.102-1.124-.11-.858-.008-1.585.004-1.996.2-.274.13-.485.422-.356.439.16.02.52.095.71.348.247.327.238 1.063.238 1.063s.142 2.025-.33 2.276c-.326.173-.77-.18-1.726-1.79-.489-.825-.859-1.737-.859-1.737s-.07-.17-.198-.26c-.154-.111-.37-.146-.37-.146l-2.286.014s-.343.01-.469.155c-.112.13-.009.397-.009.397s1.79 4.086 3.816 6.145c1.86 1.888 3.97 1.765 3.97 1.765z"/>
  </symbol>
  <symbol id="fb" viewBox="0 0 7 15">
    <path transform="translate(-1538 -783)" d="M1538.223 790.989h1.519v6.769c0 .133.1.242.223.242h2.576c.123 0 .223-.109.223-.242v-6.737h1.746c.114 0 .21-.093.222-.215l.265-2.492a.256.256 0 0 0-.055-.189.217.217 0 0 0-.167-.08h-2.01v-1.563c0-.47.233-.71.695-.71h1.315c.124 0 .224-.107.224-.241v-2.288c0-.133-.1-.242-.224-.242h-1.812a1.54 1.54 0 0 0-.083-.001c-.314 0-1.407.066-2.27.926a2.714 2.714 0 0 0-.793 2.292v1.827h-1.594c-.124 0-.224.108-.224.241v2.46c0 .134.1.243.224.243z"/>
  </symbol>
  <symbol viewBox="0 0 20 13" id="letter">
    <defs>
      <path id="a" d="M1278.026 6782.793a.754.754 0 0 1-.471-.152l-9.515-7.622a.109.109 0 0 1 .066-.024h19.787c.035 0 .068.017.086.043l-9.094 7.294-.38.307a.122.122 0 0 0-.022.014l-.033.02a.785.785 0 0 1-.42.12zm-3.21-1.304l-6.816 5.353v-10.814zm13.184-5.426v10.782l-6.808-5.32zm-7.46 5.987l7.46 5.827v.018a.106.106 0 0 1-.105.103h-19.787a.107.107 0 0 1-.108-.103v-.02l7.467-5.863 1.562 1.252c.27.216.625.334.999.334.373 0 .728-.12 1-.336z"></path>
    </defs>
    <use fill="#fff" xlink:href="#a" transform="translate(-1268 -6775)"></use>
  </symbol>
  <symbol viewBox="0 0 18 18" id="tel">
    <defs>
      <path id="a" d="M1286.991 6684.205a.872.872 0 0 1-.267.762l-2.534 2.517a1.413 1.413 0 0 1-.448.324 1.85 1.85 0 0 1-.543.172c-.012 0-.05.004-.114.01a2.45 2.45 0 0 1-.248.01c-.241 0-.632-.042-1.171-.125-.54-.083-1.201-.286-1.982-.61-.781-.325-1.667-.811-2.658-1.458-.99-.649-2.045-1.539-3.163-2.67-.89-.877-1.626-1.716-2.21-2.517a17.65 17.65 0 0 1-1.41-2.222 11.946 11.946 0 0 1-.8-1.849 9.838 9.838 0 0 1-.363-1.43c-.063-.401-.089-.715-.076-.944.013-.229.02-.356.02-.382a1.86 1.86 0 0 1 .17-.543c.09-.185.197-.333.325-.448l2.534-2.536a.842.842 0 0 1 .61-.267c.165 0 .31.048.438.143.127.095.235.212.324.353l2.038 3.87a.93.93 0 0 1 .096.668 1.188 1.188 0 0 1-.324.61l-.934.934a.323.323 0 0 0-.067.124.473.473 0 0 0-.028.143c.05.268.165.573.343.916.152.305.387.676.705 1.115.317.439.768.944 1.353 1.517.571.584 1.08 1.038 1.524 1.362a8.85 8.85 0 0 0 1.115.716c.298.152.527.245.686.276l.238.048c.025 0 .066-.01.124-.029a.313.313 0 0 0 .123-.067l1.086-1.106c.23-.203.496-.305.8-.305.217 0 .388.038.515.114h.02l3.677 2.174c.267.166.425.375.476.63z"></path>
    </defs>
    <use fill="#fff" xlink:href="#a" transform="translate(-1269 -6670)"></use>
  </symbol>
  <symbol viewBox="0 0 19 24" id="user">
    <defs>
      <path id="a" d="M1284.008 6575.882c4.04 1.551 2.816 7.742 2.818 7.79-.127.691-.201.928-.265.955-4.042 1.828-14.085 1.828-18.126 0-.065-.027-.139-.264-.265-.955 0-.048-1.208-6.263 2.817-7.79 2.727-.904 3.86-2.029 3.86-2.029l.091.089c.81.774 1.705 1.229 2.521 1.229h.077c.816 0 1.711-.455 2.52-1.23l.092-.088s1.134 1.125 3.86 2.03zm-2.284-7.926c.158.138.116.728-.052 1.304-.151.576-.35.731-.397.867-.48 2.289-2.062 4.245-3.765 4.245-1.702 0-3.373-1.956-3.853-4.245-.047-.136-.245-.291-.397-.867-.168-.576-.205-1.128-.052-1.304l.034-.037c.226-.212.208-.2.208-.2s-.395-2.023-.078-2.98c.525-1.613 2.374-2.465 2.728-2.602.543-.242 1.012-.146 1.012-.146.023.001.385.074.385.075.596.12 3.566 1.143 4.063 2.673.317.957-.078 2.98-.078 2.98s-.018-.012.209.2z"></path>
    </defs>
    <use fill="#fff" xlink:href="#a" transform="translate(-1268 -6562)"></use>
  </symbol>
</svg>
